# xmcd
#
# Track frame offsets:
#	150
#	10854
#	22183
#	34446
#	44669
#	55743
#	67067
#	75935
#	85449
#	94920
#	107132
#	118202
#	131699
#	145373
#	162401
#	175530
#	188884
#	198074
#	208703
#	218125
#	227011
#	238690
#	261694
#	276073
#	289770
#	303868
#	312122
#
# Disc length: 4292 seconds
#
# Revision: 0
# Processed by: cddbd v1.4b42PL1 Copyright (c) Steve Scherf et al.
# Submitted via: EasyCDDAExtractor 4.5.0.2
#
DISCID=9210c21b
DTITLE=THE BEATLES - 27 HITS DE COLECCION
DYEAR=1900
DGENRE=Blues
TTITLE0=She Loves You
TTITLE1=And I Love Her
TTITLE2=I Should Have Known Better
TTITLE3=Till There Was Heart
TTITLE4=Devill In The Heart
TTITLE5=I Need You
TTITLE6=It's Only Love
TTITLE7=Yesterday
TTITLE8=Norweigan Wood
TTITLE9=Michelle
TTITLE10=In My Life
TTITLE11=The Fool On The Hill
TTITLE12=Penny Lane
TTITLE13=All You Need Is Love
TTITLE14=I Saw Her Standing There
TTITLE15=Anna
TTITLE16=Please, Please Me
TTITLE17=Love Me Do
TTITLE18=P.S.I. I Love You
TTITLE19=Do You Want To Know A Secret
TTITLE20=Twist/Shouth
TTITLE21=A Day In My Life
TTITLE22=Obladi, Oblada
TTITLE23=Something
TTITLE24=Here Come The Sun
TTITLE25=I'll Follow The Sun
TTITLE26=Let It Be
EXTD=
EXTT0=
EXTT1=
EXTT2=
EXTT3=
EXTT4=
EXTT5=
EXTT6=
EXTT7=
EXTT8=
EXTT9=
EXTT10=
EXTT11=
EXTT12=
EXTT13=
EXTT14=
EXTT15=
EXTT16=
EXTT17=
EXTT18=
EXTT19=
EXTT20=
EXTT21=
EXTT22=
EXTT23=
EXTT24=
EXTT25=
EXTT26=
PLAYORDER=
